<svg width="165" height="72" viewBox="0 0 165 72" fill="none" xmlns="http://www.w3.org/2000/svg">
<g id="Logo" clip-path="url(#clip0_156_6011)">
<path id="Vector" d="M7.17285 2.21709L18.5992 25.0568V18.0579H23.9869L24.4332 20.175C25.7827 19.2744 28.5658 17.9684 30.3197 17.6103L30.8606 23.7349C28.9282 24.5038 26.4601 25.6255 25.0686 26.6156V37.9801L32.4306 52.694L64.0107 6.01931L7.17285 2.21709Z" fill="#A3D0E9"/>
<path id="Vector_2" d="M0 5.16618L18.6046 32.6296V18.0579H23.9923L24.4386 20.175C25.7881 19.2744 28.5712 17.9684 30.3251 17.6103L30.866 23.7349C28.9335 24.5038 26.4655 25.6255 25.074 26.6156V42.1773L32.415 53.0152L56.7276 0L0 5.16618Z" fill="#A3D0E9"/>
<path id="Vector_3" d="M82.6782 21.5494L82.1479 15.5038C80.4203 15.8619 77.6739 17.1469 76.3454 18.0369L75.9043 15.9462H70.585V37.5904H76.9651V24.3932C78.3408 23.4137 80.7773 22.3078 82.6835 21.5494" fill="#008EC2"/>
<path id="Vector_4" d="M104.838 37.5904V22.4342C104.838 18.258 103.551 15.5038 99.8754 15.5038C97.3916 15.5038 94.7766 16.3043 92.1668 17.505V6.21416L85.876 7.10415V37.5904H92.2561V23.3242C93.6319 22.6132 95.7585 21.7232 96.9085 21.7232C98.0585 21.7232 98.4576 22.3025 98.4576 23.2768V37.5851H104.838V37.5904Z" fill="#008EC2"/>
<path id="Vector_5" d="M116.753 6.83558H110.373V13.2341H116.753V6.83558Z" fill="#008EC2"/>
<path id="Vector_6" d="M116.753 15.9462H110.373V37.5904H116.753V15.9462Z" fill="#008EC2"/>
<path id="Vector_7" d="M134.523 29.4593C134.523 31.5026 133.457 32.6612 131.157 32.6612C128.857 32.6612 127.791 31.5079 127.791 29.4593V24.0825C127.791 22.0392 128.857 20.8806 131.157 20.8806C133.457 20.8806 134.523 22.0339 134.523 24.0825V29.4593ZM140.903 29.2803V24.2563C140.903 19.8116 138.823 15.5038 131.157 15.5038C123.49 15.5038 121.405 19.8169 121.405 24.2563V29.2803C121.405 33.725 123.49 38.0328 131.157 38.0328C138.823 38.0328 140.903 33.725 140.903 29.2803Z" fill="#008EC2"/>
<path id="Vector_8" d="M164.523 37.5904V22.4342C164.523 18.258 163.236 15.5038 159.56 15.5038C157.077 15.5038 153.621 16.3043 150.964 17.5945L150.297 15.9514H145.556V37.5957H151.936V23.2873C153.312 22.5342 155.438 21.7338 156.588 21.7338C157.738 21.7338 158.137 22.313 158.137 23.2873V37.5957H164.517L164.523 37.5904Z" fill="#008EC2"/>
<path id="Vector_9" d="M71.6771 50.3874C71.6771 48.9918 72.302 48.0386 74.0191 48.0386C74.8173 48.0386 75.4894 48.1176 76.3611 48.2914V45.079L77.2695 44.9526V55.8274H76.4399L76.3926 55.1059C75.6259 55.6852 74.6755 55.9854 73.8301 55.9854C72.344 55.9854 71.6719 55.2481 71.6719 53.8683V50.3874H71.6771ZM76.3664 49.1182C75.5367 48.9444 74.728 48.8496 73.9929 48.8496C72.9952 48.8496 72.5856 49.3499 72.5856 50.3874V53.8683C72.5856 54.7478 72.8691 55.1691 73.8983 55.1691C74.8383 55.1691 75.6469 54.7794 76.3664 54.1949V49.1182Z" fill="#1D1D1B"/>
<path id="Vector_10" d="M83.0516 55.1849C83.834 55.1849 84.7057 55.0269 85.4566 54.8268L85.6141 55.5641C84.9104 55.8169 83.9127 55.9854 82.9885 55.9854C80.8461 55.9854 80.1582 54.8742 80.1582 53.2101V50.8139C80.1582 49.2446 80.8619 48.0386 83.0043 48.0386C85.1468 48.0386 85.7716 49.2446 85.7716 50.8139V52.2885H81.0666V53.2417C81.0666 54.6056 81.534 55.1849 83.0516 55.1849ZM81.0666 51.4669H84.8789V50.7771C84.8789 49.4921 84.4274 48.818 83.0043 48.818C81.5813 48.818 81.0666 49.4921 81.0666 50.7771V51.4669ZM82.1641 46.6273C82.789 46.2376 83.5242 45.7636 84.2121 45.2791L84.6636 45.969C83.9915 46.4535 83.2248 46.9116 82.5842 47.2698L82.1641 46.6273Z" fill="#1D1D1B"/>
<path id="Vector_11" d="M95.6017 55.8274H94.2101L91.6318 48.1966H92.556L94.898 55.1849L97.2558 48.1966H98.18L95.6017 55.8274Z" fill="#1D1D1B"/>
<path id="Vector_12" d="M102.932 55.9801C100.789 55.9801 99.9805 54.7741 99.9805 53.2048V50.8087C99.9805 49.2393 100.794 48.0334 102.932 48.0334C105.069 48.0334 105.883 49.2393 105.883 50.8087V53.2048C105.883 54.7741 105.069 55.9801 102.932 55.9801ZM104.974 50.7771C104.974 49.4921 104.349 48.8496 102.926 48.8496C101.503 48.8496 100.878 49.4921 100.878 50.7771V53.2364C100.878 54.5214 101.503 55.1638 102.926 55.1638C104.349 55.1638 104.974 54.5214 104.974 53.2364V50.7771Z" fill="#1D1D1B"/>
<path id="Vector_13" d="M108.776 55.8274V45.079L109.685 44.9526V55.8274H108.776Z" fill="#1D1D1B"/>
<path id="Vector_14" d="M122.277 55.8274V49.6554C122.277 49.0919 121.978 48.8865 121.448 48.8865C120.728 48.8865 119.479 49.2604 118.528 49.7659V55.8326H117.62V49.6606C117.62 49.0971 117.32 48.8917 116.79 48.8917C116.165 48.8917 114.821 49.2657 113.87 49.7712V55.8379H112.962V48.2071H113.76L113.823 48.897C114.637 48.5073 115.997 48.0491 116.916 48.0491C117.73 48.0491 118.182 48.3651 118.386 48.897C119.263 48.4915 120.65 48.0491 121.574 48.0491C122.76 48.0491 123.181 48.7232 123.181 49.7712V55.8379H122.272L122.277 55.8274Z" fill="#1D1D1B"/>
<path id="Vector_15" d="M131.466 55.8274H130.684L130.621 55.2323C129.886 55.6852 129.045 55.9854 128.042 55.9854C126.698 55.9854 126.073 55.2165 126.073 53.8525C126.073 52.2411 126.808 51.7355 128.305 51.7355H130.558V50.2452C130.558 49.1972 130.012 48.8496 128.762 48.8496C128.011 48.8496 127.213 48.9602 126.514 49.1024L126.373 48.3335C126.982 48.1597 127.937 48.0334 128.715 48.0334C130.684 48.0334 131.466 48.818 131.466 50.2452V55.8221V55.8274ZM130.558 52.5518H128.336C127.291 52.5518 126.976 52.8678 126.976 53.8683C126.976 54.7636 127.165 55.1691 128.226 55.1691C128.977 55.1691 129.865 54.8689 130.552 54.3844V52.5518H130.558Z" fill="#1D1D1B"/>
<path id="Vector_16" d="M135.026 53.3786C135.026 54.7425 135.572 55.1638 136.995 55.1638C137.447 55.1638 137.983 55.1164 138.618 55.0058L138.728 55.7589C138.198 55.9011 137.51 55.9801 136.995 55.9801C134.853 55.9801 134.123 54.9953 134.123 53.347V50.6665C134.123 49.0234 134.858 48.0334 136.995 48.0334C137.51 48.0334 138.198 48.1123 138.728 48.2545L138.618 49.0076C137.977 48.897 137.447 48.8496 136.995 48.8496C135.572 48.8496 135.026 49.2709 135.026 50.6349V53.3786Z" fill="#1D1D1B"/>
<path id="Vector_17" d="M146.123 55.8274V49.6554C146.123 49.0919 145.823 48.8865 145.293 48.8865C144.668 48.8865 143.324 49.2604 142.373 49.7659V55.8326H141.465V45.0843L142.373 44.9579V48.8759C143.187 48.4862 144.516 48.0439 145.419 48.0439C146.606 48.0439 147.031 48.718 147.031 49.7659V55.8326H146.123V55.8274Z" fill="#1D1D1B"/>
<path id="Vector_18" d="M154.141 55.6852C153.705 55.859 153.096 55.9801 152.55 55.9801C151.347 55.9801 150.833 55.543 150.833 54.337V48.976H149.362V48.1913H150.833V46.3903L151.741 46.2639V48.1913H154.067L153.973 48.976H151.741V54.2422C151.741 54.9163 151.836 55.1954 152.618 55.1954C153.038 55.1954 153.526 55.1164 153.978 54.9743L154.151 55.6799L154.141 55.6852Z" fill="#1D1D1B"/>
<path id="Vector_19" d="M96.211 71.842H94.8195L92.2412 64.2112H93.1654L95.5074 71.1995L97.8651 64.2112H98.7841L96.2058 71.842H96.211Z" fill="#1D1D1B"/>
<path id="Vector_20" d="M102.853 71.1995C103.636 71.1995 104.507 71.0415 105.258 70.8414L105.416 71.5787C104.712 71.8315 103.714 72 102.79 72C100.648 72 99.96 70.8888 99.96 69.2247V66.8286C99.96 65.2592 100.664 64.0532 102.806 64.0532C104.949 64.0532 105.573 65.2592 105.573 66.8286V68.3031H100.868V69.2563C100.868 70.6202 101.336 71.1995 102.853 71.1995ZM100.868 67.4868H104.681V66.797C104.681 65.512 104.229 64.8379 102.806 64.8379C101.383 64.8379 100.868 65.512 100.868 66.797V67.4868Z" fill="#1D1D1B"/>
<path id="Vector_21" d="M111.15 64.9485C110.352 65.2908 109.481 65.8754 108.745 66.3599V71.842H107.837V64.2112H108.651L108.698 65.3698C109.512 64.8379 110.321 64.3218 111.04 64.0532L111.15 64.9485Z" fill="#1D1D1B"/>
<path id="Vector_22" d="M112.369 64.2112H117.305L117.289 64.9485L113.193 71.1047H117.425V71.842H112.237V71.1047L116.349 64.9485H112.348L112.363 64.2112H112.369Z" fill="#1D1D1B"/>
<path id="Vector_23" d="M122.041 71.1995C122.823 71.1995 123.695 71.0415 124.446 70.8414L124.603 71.5787C123.9 71.8315 122.902 72 121.978 72C119.835 72 119.147 70.8888 119.147 69.2247V66.8286C119.147 65.2592 119.851 64.0532 121.994 64.0532C124.136 64.0532 124.761 65.2592 124.761 66.8286V68.3031H120.056V69.2563C120.056 70.6202 120.523 71.1995 122.041 71.1995ZM120.056 67.4868H123.868V66.797C123.868 65.512 123.417 64.8379 121.994 64.8379C120.571 64.8379 120.056 65.512 120.056 66.797V67.4868Z" fill="#1D1D1B"/>
<path id="Vector_24" d="M127.029 71.842V61.0936L127.938 60.9672V71.842H127.029ZM132.464 64.2112L129.434 67.9713L132.59 71.842H131.435L128.342 67.9713L131.34 64.2112H132.464Z" fill="#1D1D1B"/>
<path id="Vector_25" d="M136.781 71.1995C137.563 71.1995 138.435 71.0415 139.186 70.8414L139.344 71.5787C138.64 71.8315 137.642 72 136.718 72C134.576 72 133.888 70.8888 133.888 69.2247V66.8286C133.888 65.2592 134.591 64.0532 136.734 64.0532C138.876 64.0532 139.501 65.2592 139.501 66.8286V68.3031H134.796V69.2563C134.796 70.6202 135.263 71.1995 136.781 71.1995ZM134.796 67.4868H138.608V66.797C138.608 65.512 138.157 64.8379 136.734 64.8379C135.311 64.8379 134.796 65.512 134.796 66.797V67.4868Z" fill="#1D1D1B"/>
<path id="Vector_26" d="M145.077 64.9485C144.279 65.2908 143.407 65.8754 142.672 66.3599V71.842H141.764V64.2112H142.578L142.625 65.3698C143.439 64.8379 144.247 64.3218 144.967 64.0532L145.077 64.9485Z" fill="#1D1D1B"/>
<path id="Vector_27" d="M151.61 71.842H150.827L150.764 71.2469C150.029 71.6998 149.189 72 148.186 72C146.842 72 146.217 71.2311 146.217 69.8672C146.217 68.2557 146.952 67.7501 148.454 67.7501H150.701V66.2598C150.701 65.2118 150.155 64.8642 148.905 64.8642C148.154 64.8642 147.356 64.9748 146.658 65.117L146.516 64.3482C147.125 64.1744 148.081 64.048 148.858 64.048C150.827 64.048 151.61 64.8326 151.61 66.2598V71.8367V71.842ZM150.701 68.5664H148.48C147.435 68.5664 147.12 68.8824 147.12 69.883C147.12 70.7782 147.309 71.1837 148.37 71.1837C149.121 71.1837 150.008 70.8836 150.696 70.3991V68.5664H150.701Z" fill="#1D1D1B"/>
<path id="Vector_28" d="M159.187 71.842H158.404L158.341 71.2469C157.606 71.6998 156.766 72 155.763 72C154.419 72 153.794 71.2311 153.794 69.8672C153.794 68.2557 154.529 67.7501 156.031 67.7501H158.278V66.2598C158.278 65.2118 157.732 64.8642 156.483 64.8642C155.732 64.8642 154.933 64.9748 154.235 65.117L154.093 64.3482C154.702 64.1744 155.658 64.048 156.435 64.048C158.404 64.048 159.187 64.8326 159.187 66.2598V71.8367V71.842ZM158.284 68.5664H156.062C155.017 68.5664 154.702 68.8824 154.702 69.883C154.702 70.7782 154.891 71.1837 155.952 71.1837C156.703 71.1837 157.59 70.8836 158.278 70.3991V68.5664H158.284Z" fill="#1D1D1B"/>
<path id="Vector_29" d="M165 64.9485C164.202 65.2908 163.33 65.8754 162.595 66.3599V71.842H161.687V64.2112H162.5L162.548 65.3698C163.362 64.8379 164.17 64.3218 164.89 64.0532L165 64.9485Z" fill="#1D1D1B"/>
<path id="Vector_30" d="M21.9232 2.78584L8.49609 4.00761L18.6045 24.2089V18.0527H23.9921L24.4384 20.1697C25.788 19.2692 28.571 17.9631 30.3249 17.605L30.8658 23.7297C28.9334 24.4985 26.4654 25.6202 25.0738 26.6103V37.1322L32.6564 52.2885L33.0397 51.7197L54.4905 4.96606L21.9232 2.79111V2.78584Z" fill="#008EC2"/>
</g>
<defs>
<clipPath id="clip0_156_6011">
<rect width="165" height="72" fill="white"/>
</clipPath>
</defs>
</svg>
