<svg width="73" height="73" viewBox="0 0 73 73" fill="none" xmlns="http://www.w3.org/2000/svg">
<path d="M36.5178 71.8935C56.1337 71.8935 72.0355 56.0552 72.0355 36.5178C72.0355 16.9803 56.1337 1.14209 36.5178 1.14209C16.9018 1.14209 1 16.9803 1 36.5178C1 56.0552 16.9018 71.8935 36.5178 71.8935Z" fill="white"/>
<path d="M32.1491 1.35522C24.0865 2.34972 16.8054 6.00805 11.3357 11.4778C4.87143 17.9065 1 26.6794 1 36.4113H2.70485H11.2291H14.2836C12.7564 37.7609 11.7619 39.6434 11.7619 41.881C11.7619 45.8235 14.994 48.949 18.8654 48.949C22.8079 48.949 25.969 45.7169 25.969 41.881C25.969 39.7499 24.9745 37.7609 23.4472 36.4113L33.9605 36.5178" stroke="#008695" stroke-width="1.5" stroke-miterlimit="10"/>
<path d="M40.7799 71.7513C48.878 70.7568 56.1236 67.0985 61.6288 61.6288C68.0931 55.2001 72.0355 46.2496 72.0355 36.4112H69.6203H62.8719H58.8229C60.3502 35.0615 61.3447 33.1791 61.3447 30.9414C61.3447 26.999 58.1126 23.8734 54.2411 23.8734C50.2987 23.8734 47.1376 27.1055 47.1376 30.9414C47.1376 33.0725 48.1321 35.0615 49.6593 36.4112H38.8975" stroke="#0099CC" stroke-width="1.5" stroke-miterlimit="10"/>
<path d="M71.7515 32.1491C70.757 24.0865 67.0987 16.8409 61.5934 11.4777C55.1647 5.01351 46.2498 1 36.4824 1V10.5898V6.008V14.2481C35.1327 12.7209 33.2503 11.7264 31.0127 11.7264C27.0702 11.7264 23.9091 14.9585 23.9091 18.7944C23.9091 22.7369 27.1412 25.8624 31.0127 25.8624C33.1792 25.8624 35.1327 24.8679 36.4824 23.3407V26.8214V46.4627V49.9435C37.8321 48.4162 39.7145 47.4217 41.9521 47.4217C45.8946 47.4217 49.0557 50.6538 49.0557 54.4898C49.0557 58.4322 45.8236 61.5578 41.9521 61.5578C39.7855 61.5578 37.8321 60.5633 36.4824 59.036V62.8719V69.2296V72C26.6795 72 17.8 68.0575 11.3358 61.6288C5.86608 56.1591 2.17223 48.9135 1.17773 40.7799" stroke="#0099CC" stroke-width="1.5" stroke-miterlimit="10"/>
</svg>
