<svg width="70" height="43" viewBox="0 0 70 43" fill="none" xmlns="http://www.w3.org/2000/svg">
<path d="M31.4982 8C31.672 7.92965 19.5 1 19.5 1" stroke="#0099CC" stroke-width="1.5" stroke-miterlimit="10"/>
<path d="M0.5 19H7.67391L9.99689 19.9748L11.5 23" stroke="#0099CC" stroke-width="1.5" stroke-miterlimit="10" stroke-linecap="round"/>
<path d="M69.5 19.2526L62.1108 19.3577L60.2465 20.6185L59.2635 23L41.3667 11.7929C39.0618 10.8473 37.062 12.3882 37.062 12.3882L34.5198 15.12C31.8759 18.0969 29.0965 16.0306 29.0965 16.0306C26.2154 13.9642 28.1135 11.4076 28.1135 11.4076L35.1977 2.79212H37.062C37.062 2.79212 54.0097 1.84652 60.1109 2.02163" stroke="#008695" stroke-width="1.5" stroke-miterlimit="10" stroke-linecap="round"/>
<path d="M56.8086 22.9662L60.4047 25.0021C60.4047 25.0021 62.5623 26.7964 60.821 28.9703C59.2312 30.9027 55.7108 29.5224 55.7108 29.5224L42.5 22" stroke="#0099CC" stroke-width="1.5" stroke-miterlimit="10" stroke-linecap="round"/>
<path d="M40.5 27L48.6241 33.3972C48.6241 33.3972 51.058 35.1852 52.7026 32.6025C52.7026 32.6025 53.788 31.4502 53.4262 29.3443" stroke="#0099CC" stroke-width="1.5" stroke-miterlimit="10" stroke-linecap="round"/>
<path d="M33.5 40.2743C33.6697 40.2743 38.6253 42.8805 39.6436 38.215C39.6436 38.215 40.0848 35.9949 36.5888 34.4826L41.5104 37.4106C41.5104 37.4106 44.3616 38.5368 45.7872 36.5097C45.7872 36.5097 46.8733 35.5123 46.3642 34" stroke="#0099CC" stroke-width="1.5" stroke-linecap="round" stroke-linejoin="round"/>
<path d="M12.5 31C14.7091 31 16.5 29.2091 16.5 27C16.5 24.7909 14.7091 23 12.5 23C10.2909 23 8.5 24.7909 8.5 27C8.5 29.2091 10.2909 31 12.5 31Z" stroke="#008695" stroke-width="1.5" stroke-miterlimit="10" stroke-linecap="round"/>
<path d="M30.5 42C32.1569 42 33.5 40.2091 33.5 38C33.5 35.7909 32.1569 34 30.5 34C28.8431 34 27.5 35.7909 27.5 38C27.5 40.2091 28.8431 42 30.5 42Z" stroke="#008695" stroke-width="1.5" stroke-miterlimit="10" stroke-linecap="round"/>
<path d="M17.0648 27.5884L15.5 30.528C15.5 30.528 15.8513 33.2033 17.5119 33.8309C19.2044 34.4585 20.7373 33.1373 20.7373 33.1373L23.4837 28.1829C23.4837 28.1829 23.8349 25.7057 21.2802 25.1442C21.2802 25.1772 18.5019 24.0542 17.0648 27.5884Z" stroke="#008695" stroke-width="1.5" stroke-miterlimit="10" stroke-linecap="round"/>
<path d="M29.209 26.3C29.209 26.3 25.4939 25.1188 24.2682 27.4442L20.5148 33.6452C20.5148 33.6452 20.17 36.7457 22.8128 37.7423C22.8128 37.7423 25.6471 38.6282 26.6429 37.1148L28.2898 34.7525L29.592 33.6821C29.592 33.6452 31.3922 30.6554 31.3922 30.6554C31.3922 30.6554 32.2348 27.9979 29.209 26.3Z" stroke="#008695" stroke-width="1.5" stroke-miterlimit="10" stroke-linecap="round"/>
</svg>
