<svg width="42" height="88" viewBox="0 0 42 88" fill="none" xmlns="http://www.w3.org/2000/svg">
<path d="M7.81106 52.1203C7.81106 52.1203 1.46161 36.3291 9.81157 12.2786C9.81157 12.2786 13.7256 1.66562 20.8579 1.02371C20.8579 1.02371 28.2076 -0.131743 33.2523 13.6909C33.2523 13.6909 41.5153 31.7929 34.9919 53.1045C34.9919 53.1473 20.4665 60.2084 7.81106 52.1203Z" stroke="#0099CC" stroke-width="1.5" stroke-miterlimit="10"/>
<path d="M10.5 12.222C10.5 12.222 19.3689 16.3666 32.5 12" stroke="#008695" stroke-width="1.5" stroke-miterlimit="10"/>
<path d="M36.6399 44C36.6399 44 45.4875 50.0889 36.393 64C36.393 64 37.0926 54.6222 34.5 53.1556C34.5412 53.1556 36.4341 47.2444 36.6399 44Z" stroke="#0099CC" stroke-width="1.5" stroke-linecap="round" stroke-linejoin="round"/>
<path d="M6.00347 44C6.00347 44 -4.31873 49.7844 6.29153 63C6.29153 63 5.47536 54.0911 8.5 52.6978C8.45199 52.6978 6.24352 47.0822 6.00347 44Z" stroke="#0099CC" stroke-width="1.5" stroke-linecap="round" stroke-linejoin="round"/>
<path d="M18.5003 56C18.5003 56 18.4181 63.5373 21.1714 64.9886C21.1714 64.9886 24.0069 65.6908 24.5 56.0936L18.5003 56Z" stroke="#0099CC" stroke-width="1.5" stroke-miterlimit="10"/>
<path d="M9.5 58L7.5 87" stroke="#008695" stroke-width="1.5" stroke-miterlimit="10" stroke-linecap="round"/>
<path d="M14.5 65V78" stroke="#008695" stroke-width="1.5" stroke-miterlimit="10" stroke-linecap="round"/>
<path d="M32.5 58L34.5 87" stroke="#008695" stroke-width="1.5" stroke-miterlimit="10" stroke-linecap="round"/>
<path d="M27.5 65V78" stroke="#008695" stroke-width="1.5" stroke-miterlimit="10" stroke-linecap="round"/>
<path d="M20.5 70V84" stroke="#008695" stroke-width="1.5" stroke-miterlimit="10" stroke-linecap="round"/>
<path d="M21.5 34C24.8137 34 27.5 31.3137 27.5 28C27.5 24.6863 24.8137 22 21.5 22C18.1863 22 15.5 24.6863 15.5 28C15.5 31.3137 18.1863 34 21.5 34Z" stroke="#008695" stroke-width="1.5" stroke-miterlimit="10"/>
</svg>
