<svg width="56" height="73" viewBox="0 0 56 73" fill="none" xmlns="http://www.w3.org/2000/svg">
<path d="M28.249 57.2424V67.2518C30.4692 66.0763 35.0169 63.761 39.4572 60.5195C44.7928 56.6368 51.2026 50.795 51.2026 44.8108V7.51596L32.4029 0" stroke="#0099CC" stroke-width="1.5" stroke-miterlimit="10"/>
<path d="M54.8551 12.7165V44.7751C54.8551 52.0417 48.1946 58.6672 41.5342 63.476C34.8737 68.2847 28.2132 71.2769 28.2132 71.2769C28.2132 71.2769 21.5527 68.2847 14.8922 63.476C8.23177 58.6672 1.57129 52.0417 1.57129 44.7751V12.7522L27.9267 2.24408L47.371 10.5437" stroke="#0099CC" stroke-width="1.5" stroke-miterlimit="10"/>
<path d="M28.2497 31.8092L21.1953 24.792L28.2497 17.9172L35.1608 24.792L24.06 35.9412" stroke="#008695" stroke-width="1.5" stroke-miterlimit="10"/>
<path d="M32.1523 32.6997L37.631 27.2498L44.5422 34.267L37.631 41.1418L27.0674 30.6337" stroke="#008695" stroke-width="1.5" stroke-miterlimit="10"/>
<path d="M25.6348 34.3739L18.8669 41.1418L11.8125 34.267L18.8669 27.2498L23.8085 32.3079" stroke="#008695" stroke-width="1.5" stroke-miterlimit="10"/>
<path d="M25.385 33.8752L35.1608 43.5996L28.2497 50.4744L21.1953 43.5996L32.5468 32.3079" stroke="#008695" stroke-width="1.5" stroke-miterlimit="10"/>
<path d="M23.415 31.8092L26.0291 34.5164" stroke="#008695" stroke-width="1.5" stroke-miterlimit="10"/>
</svg>
