<svg width="58" height="94" viewBox="0 0 58 94" fill="none" xmlns="http://www.w3.org/2000/svg">
<path d="M33.8811 13.1318L41.0249 13.256C41.3571 13.256 41.6479 13.256 42.0632 13.3801C45.0121 14.2078 47.0888 16.8149 47.0888 19.8358C47.0888 21.0773 46.7565 22.236 46.0505 23.3947C45.2198 24.9672 44.5968 26.6225 44.1814 28.3192C43.7661 29.6848 43.6415 31.0504 43.9738 32.3747C44.306 33.4092 44.7214 34.2369 45.3444 35.1059C46.9227 37.713 48.584 40.3201 50.1623 42.8444C52.1559 45.9895 53.8173 49.3001 55.1879 52.7762C57.8045 59.5629 57.7214 67.0946 55.0633 73.7571C52.862 79.5093 49.7054 84.9304 45.7182 89.648C44.5552 91.2205 42.977 92.1723 41.191 92.6689C40.1527 92.7931 39.1974 92.8758 38.159 92.8758L30.5168 93H28.1079L20.4656 92.8758C19.4273 92.8758 18.472 92.7517 17.4337 92.6689C15.5647 92.2551 13.9864 91.2205 12.9065 89.648C8.91926 84.8476 5.67962 79.5093 3.47833 73.7571C0.861704 66.9704 0.861703 59.4388 3.35373 52.7762C4.72434 49.3415 6.38569 45.8654 8.37932 42.8444C10.0407 40.3201 11.619 37.6302 13.1972 35.1059C13.7372 34.2783 14.2356 33.3265 14.5678 32.3747C14.9001 31.0091 14.7755 29.6434 14.3602 28.3192C13.9448 26.6639 13.1972 24.9672 12.3666 23.3947C11.7436 22.236 11.5359 21.0773 11.3282 19.8358C11.4528 16.8149 13.4049 14.2078 16.3538 13.3801C16.6861 13.256 16.9768 13.256 17.3921 13.256L28.0663 13.1318" fill="white"/>
<path d="M33.8811 13.1318L41.0249 13.256C41.3571 13.256 41.6479 13.256 42.0632 13.3801C45.0121 14.2078 47.0888 16.8149 47.0888 19.8358C47.0888 21.0773 46.7565 22.236 46.0505 23.3947C45.2198 24.9672 44.5968 26.6225 44.1814 28.3192C43.7661 29.6848 43.6415 31.0504 43.9738 32.3747C44.306 33.4092 44.7214 34.2369 45.3444 35.1059C46.9227 37.713 48.584 40.3201 50.1623 42.8444C52.1559 45.9895 53.8173 49.3001 55.1879 52.7762C57.8045 59.5629 57.7214 67.0946 55.0633 73.7571C52.862 79.5093 49.7054 84.9304 45.7182 89.648C44.5552 91.2205 42.977 92.1723 41.191 92.6689C40.1527 92.7931 39.1974 92.8758 38.159 92.8758L30.5168 93H28.1079L20.4656 92.8758C19.4273 92.8758 18.472 92.7517 17.4337 92.6689C15.5647 92.2551 13.9864 91.2205 12.9065 89.648C8.91926 84.8476 5.67962 79.5093 3.47833 73.7571C0.861704 66.9704 0.861703 59.4388 3.35373 52.7762C4.72434 49.3415 6.38569 45.8654 8.37932 42.8444C10.0407 40.3201 11.619 37.6302 13.1972 35.1059C13.7372 34.2783 14.2356 33.3265 14.5678 32.3747C14.9001 31.0091 14.7755 29.6434 14.3602 28.3192C13.9448 26.6639 13.1972 24.9672 12.3666 23.3947C11.7436 22.236 11.5359 21.0773 11.3282 19.8358C11.4528 16.8149 13.4049 14.2078 16.3538 13.3801C16.6861 13.256 16.9768 13.256 17.3921 13.256L28.0663 13.1318" stroke="#0099CC" stroke-width="1.5" stroke-miterlimit="10"/>
<path d="M4.5332 93H54.0717" stroke="#0099CC" stroke-width="1.5" stroke-miterlimit="10"/>
<path d="M30.8905 1C28.3511 10.2732 16.2787 46.7336 16.2787 46.7336L24.4796 41.7176L15.6543 68.7363L36.8851 33.4139" stroke="#008695" stroke-width="1.5" stroke-miterlimit="10"/>
</svg>
