<svg width="86" height="99" viewBox="0 0 86 99" fill="none" xmlns="http://www.w3.org/2000/svg">
<g id="Group 39495">
<g id="Clip path group">
<mask id="mask0_254_5026" style="mask-type:luminance" maskUnits="userSpaceOnUse" x="0" y="0" width="86" height="99">
<g id="SVGID_00000153668347088685856120000007272204882314009010_">
<path id="Vector" d="M85.1887 0.5H0.761719V98.5H85.1887V0.5Z" fill="white"/>
</g>
</mask>
<g mask="url(#mask0_254_5026)">
<path id="Vector_2" d="M1.34961 30.9291V98.0591L84.5516 97.6671V31.7621L43.7836 1.28406L1.34961 30.9291Z" fill="white"/>
</g>
</g>
<g id="Clip path group_2">
<mask id="mask1_254_5026" style="mask-type:luminance" maskUnits="userSpaceOnUse" x="0" y="0" width="86" height="99">
<g id="SVGID_00000153668347088685856120000007272204882314009010__2">
<path id="Vector_3" d="M85.1887 0.5H0.761719V98.5H85.1887V0.5Z" fill="white"/>
</g>
</mask>
<g mask="url(#mask1_254_5026)">
<g id="Group">
<g id="Clip path group_3">
<mask id="mask2_254_5026" style="mask-type:luminance" maskUnits="userSpaceOnUse" x="0" y="0" width="86" height="99">
<g id="SVGID_00000158025356989841035020000005020116811889786514_">
<path id="Vector_4" d="M85.1887 0.5H0.761719V98.5H85.1887V0.5Z" fill="white"/>
</g>
</mask>
<g mask="url(#mask2_254_5026)">
<path id="Vector_5" d="M43.0001 9.12391L1.49707 38.1809V97.7649H20.6071M1.49707 30.4879L43.0981 1.43091L84.4541 31.9089V97.7649H65.6381" stroke="#0099CC" stroke-width="1.5" stroke-miterlimit="10" stroke-linecap="round"/>
</g>
</g>
<g id="Clip path group_4">
<mask id="mask3_254_5026" style="mask-type:luminance" maskUnits="userSpaceOnUse" x="0" y="0" width="86" height="99">
<g id="SVGID_00000158025356989841035020000005020116811889786514__2">
<path id="Vector_6" d="M85.1887 0.5H0.761719V98.5H85.1887V0.5Z" fill="white"/>
</g>
</mask>
<g mask="url(#mask3_254_5026)">
<g id="Group_2" opacity="0.61">
<g id="Group_3">
<g id="Clip path group_5">
<mask id="mask4_254_5026" style="mask-type:luminance" maskUnits="userSpaceOnUse" x="15" y="36" width="55" height="43">
<g id="SVGID_00000028311026576624810720000009718288830907359919_">
<path id="Vector_7" d="M69.5574 36.907H15.3145V78.753H69.5574V36.907Z" fill="white"/>
</g>
</mask>
<g mask="url(#mask4_254_5026)">
<path id="Vector_8" d="M42.4115 77.528C51.2315 77.528 58.3855 70.374 58.3855 61.554C58.3855 52.734 51.2315 45.58 42.4115 45.58C33.5915 45.58 26.4375 52.734 26.4375 61.554C26.4375 70.374 33.5915 77.528 42.4115 77.528Z" fill="white"/>
</g>
</g>
</g>
</g>
</g>
</g>
<g id="Clip path group_6">
<mask id="mask5_254_5026" style="mask-type:luminance" maskUnits="userSpaceOnUse" x="0" y="0" width="86" height="99">
<g id="SVGID_00000158025356989841035020000005020116811889786514__3">
<path id="Vector_9" d="M85.1887 0.5H0.761719V98.5H85.1887V0.5Z" fill="white"/>
</g>
</mask>
<g mask="url(#mask5_254_5026)">
<path id="Vector_10" d="M42.412 78.5081C51.771 78.5081 59.366 70.9131 59.366 61.5541C59.366 52.1951 51.771 44.6001 42.412 44.6001C33.053 44.6001 25.458 52.1951 25.458 61.5541C25.458 70.9131 33.053 78.5081 42.412 78.5081Z" stroke="#008695" stroke-width="1.5"/>
</g>
</g>
</g>
</g>
</g>
<g id="Clip path group_7">
<mask id="mask6_254_5026" style="mask-type:luminance" maskUnits="userSpaceOnUse" x="0" y="0" width="86" height="99">
<g id="SVGID_00000153668347088685856120000007272204882314009010__3">
<path id="Vector_11" d="M85.1887 0.5H0.761719V98.5H85.1887V0.5Z" fill="white"/>
</g>
</mask>
<g mask="url(#mask6_254_5026)">
<path id="Vector_12" d="M30.9951 61.2601L37.8061 70.3741L53.9271 54.0081" stroke="#008695" stroke-width="1.5"/>
</g>
</g>
</g>
</svg>
