<svg width="110" height="100" viewBox="0 0 110 100" fill="none" xmlns="http://www.w3.org/2000/svg">
<g id="Group">
<path id="Vector" d="M18.4521 81.3163V96.5127C18.4521 97.7197 19.4945 98.7072 20.7014 98.762H30.0278C31.2347 98.762 32.2771 97.8294 32.2771 96.5127V85.1017" fill="white"/>
<path id="Vector_2" d="M73.4226 81.3164V96.5129C73.4226 97.7198 72.3802 98.7073 71.1733 98.7622H61.8469C60.64 98.7622 59.5977 97.8295 59.5977 96.5129V85.1018" fill="white"/>
<path id="Vector_3" d="M32.441 85.1564H61.6269C77.4817 85.1564 83.5164 68.6433 83.5164 68.6433L88.2344 55.1476C88.399 54.6538 88.3442 54.1052 88.0699 53.6115L65.5769 18.0616C65.3026 17.5679 64.754 17.2936 64.1505 17.2936H27.7229C27.1743 17.2936 26.5709 17.5679 26.2966 18.0616L3.85847 53.7212C3.58416 54.2149 3.47444 54.6538 3.69389 55.2573L8.41192 68.753C8.41192 68.753 14.4466 85.1564 30.3014 85.1564H32.441Z" fill="white"/>
<path id="Vector_4" d="M74.3553 40.884L66.3456 23.3285C65.8519 22.5056 64.9193 22.0118 63.9866 22.0118H30.9055C29.9729 22.0118 29.0951 22.5056 28.5465 23.3285L17.5195 40.884C17.0258 41.652 17.2452 42.5847 18.0132 43.1333C18.2876 43.2978 18.5619 43.4076 18.8362 43.4076H72.9289C73.8616 43.4076 74.5199 42.6395 74.5199 41.8166C74.6296 41.4874 74.5199 41.1034 74.3553 40.884Z" fill="white"/>
<path id="Vector_5" d="M8.30274 46.6443H6.32775C3.69443 46.6443 1.5 44.5596 1.5 41.9263C1.5 41.9263 1.5 41.9263 1.5 41.8165V38.0311H13.1854" fill="white"/>
<path id="Vector_6" d="M83.8454 46.6442H85.5461C88.1794 46.6442 90.3738 44.5594 90.3738 41.9261C90.3738 41.9261 90.3738 41.9261 90.3738 41.8164V38.031H78.6885" fill="white"/>
<path id="Vector_7" d="M18.4521 81.3163V96.5127C18.4521 97.7197 19.4945 98.7072 20.7014 98.762H30.0278C31.2347 98.762 32.2771 97.8294 32.2771 96.5127V85.1017" stroke="#0099CC" stroke-width="1.5" stroke-miterlimit="10"/>
<path id="Vector_8" d="M73.4226 81.3164V96.5129C73.4226 97.7198 72.3802 98.7073 71.1733 98.7622H61.8469C60.64 98.7622 59.5977 97.8295 59.5977 96.5129V85.1018" stroke="#0099CC" stroke-width="1.5" stroke-miterlimit="10"/>
<path id="Vector_9" d="M32.441 85.1564H61.6269C77.4817 85.1564 83.5164 68.6433 83.5164 68.6433L88.2344 55.1476C88.399 54.6538 88.3442 54.1052 88.0699 53.6115L65.5769 18.0616C65.3026 17.5679 64.754 17.2936 64.1505 17.2936H27.7229C27.1743 17.2936 26.5709 17.5679 26.2966 18.0616L3.85847 53.7212C3.58416 54.2149 3.47444 54.6538 3.69389 55.2573L8.41192 68.753C8.41192 68.753 14.4466 85.1564 30.3014 85.1564H32.441Z" stroke="#0099CC" stroke-width="1.5" stroke-miterlimit="10"/>
<path id="Vector_10" d="M74.3553 40.884L66.3456 23.3285C65.8519 22.5056 64.9193 22.0118 63.9866 22.0118H30.9055C29.9729 22.0118 29.0951 22.5056 28.5465 23.3285L17.5195 40.884C17.0258 41.652 17.2452 42.5847 18.0132 43.1333C18.2876 43.2978 18.5619 43.4076 18.8362 43.4076H72.9289C73.8616 43.4076 74.5199 42.6395 74.5199 41.8166C74.6296 41.4874 74.5199 41.1034 74.3553 40.884Z" stroke="#0099CC" stroke-width="1.5" stroke-miterlimit="10"/>
<path id="Vector_11" d="M8.30274 46.6443H6.32775C3.69443 46.6443 1.5 44.5596 1.5 41.9263C1.5 41.9263 1.5 41.9263 1.5 41.8165V38.0311H13.1854" stroke="#0099CC" stroke-width="1.5" stroke-miterlimit="10"/>
<path id="Vector_12" d="M83.8454 46.6442H85.5461C88.1794 46.6442 90.3738 44.5594 90.3738 41.9261C90.3738 41.9261 90.3738 41.9261 90.3738 41.8164V38.031H78.6885" stroke="#0099CC" stroke-width="1.5" stroke-miterlimit="10"/>
<path id="Vector_13" d="M35.6787 78.0796H56.3064" stroke="#0099CC" stroke-width="1.5" stroke-miterlimit="10" stroke-linecap="round"/>
<path id="Vector_14" d="M21.1953 66.1199H70.6798" stroke="#0099CC" stroke-width="1.5" stroke-miterlimit="10" stroke-linecap="round"/>
<path id="Vector_15" d="M18.1785 63.1023C19.8243 63.1023 21.1958 64.4738 21.1958 66.1196C21.1958 67.7655 19.8243 69.137 18.1785 69.137C16.5327 69.137 15.1611 67.7655 15.1611 66.1196C15.1611 64.419 16.5327 63.1023 18.1785 63.1023Z" stroke="#0099CC" stroke-width="1.5" stroke-miterlimit="10" stroke-linecap="round"/>
<path id="Vector_16" d="M73.697 63.1024C75.3429 63.1024 76.7144 64.4739 76.7144 66.1198C76.7144 67.7656 75.3429 69.1371 73.697 69.1371C72.0512 69.1371 70.6797 67.7656 70.6797 66.1198C70.6797 64.4191 71.9963 63.1024 73.697 63.1024Z" stroke="#0099CC" stroke-width="1.5" stroke-miterlimit="10" stroke-linecap="round"/>
<path id="Vector_17" d="M35.6787 71.935H56.3064L61.9022 66.2843" stroke="#0099CC" stroke-width="1.5" stroke-miterlimit="10" stroke-linecap="round"/>
<path id="Vector_18" d="M35.6788 69.7954C36.8857 69.7954 37.8732 70.7829 37.8732 71.9898C37.8732 73.1968 36.8857 74.1843 35.6788 74.1843C34.4719 74.1843 33.4844 73.1968 33.4844 71.9898C33.4844 70.7829 34.4719 69.7954 35.6788 69.7954Z" fill="white"/>
<path id="Vector_19" d="M35.6788 69.7954C36.8857 69.7954 37.8732 70.7829 37.8732 71.9898C37.8732 73.1968 36.8857 74.1843 35.6788 74.1843C34.4719 74.1843 33.4844 73.1968 33.4844 71.9898C33.4844 70.7829 34.4719 69.7954 35.6788 69.7954Z" stroke="#0099CC" stroke-width="1.5" stroke-miterlimit="10"/>
<path id="Vector_20" d="M56.3067 75.9399C57.5137 75.9399 58.5012 76.9274 58.5012 78.1344C58.5012 79.3413 57.5137 80.3288 56.3067 80.3288C55.0998 80.3288 54.1123 79.3413 54.1123 78.1344C54.1123 76.9274 55.0998 75.9399 56.3067 75.9399Z" fill="white"/>
<path id="Vector_21" d="M56.3067 75.9399C57.5137 75.9399 58.5012 76.9274 58.5012 78.1344C58.5012 79.3413 57.5137 80.3288 56.3067 80.3288C55.0998 80.3288 54.1123 79.3413 54.1123 78.1344C54.1123 76.9274 55.0998 75.9399 56.3067 75.9399Z" stroke="#0099CC" stroke-width="1.5" stroke-miterlimit="10"/>
<path id="Vector_22" d="M87.0278 55.4768C87.0278 55.4768 108.808 44.6144 108.808 28.2658V9.17426L87.0278 1L65.248 9.17426V28.211C65.248 44.5595 87.0278 55.4768 87.0278 55.4768Z" fill="white"/>
<path id="Vector_23" d="M87.0278 55.4768C87.0278 55.4768 108.808 44.6144 108.808 28.2658V9.17426L87.0278 1L65.248 9.17426V28.211C65.248 44.5595 87.0278 55.4768 87.0278 55.4768Z" stroke="#0099CC" stroke-width="1.5" stroke-linecap="round" stroke-linejoin="round"/>
<path id="Vector_24" d="M81.3232 24.59L87.5774 33.2032L96.3551 11.0942" stroke="#008695" stroke-width="1.5" stroke-linecap="round" stroke-linejoin="round"/>
<path id="Vector_25" d="M87.0286 44.5594C87.0286 44.5594 100.085 38.031 100.085 28.2109V16.7998L87.0286 11.9172L73.9717 16.7998V28.2109C73.9717 38.031 87.0286 44.5594 87.0286 44.5594Z" stroke="#008695" stroke-width="1.5" stroke-linecap="round" stroke-linejoin="round"/>
</g>
</svg>
